<svg width="141" height="141" viewBox="0 0 141 141" fill="none" xmlns="http://www.w3.org/2000/svg">
  <path d="M18.4672 54.6072L34.4379 38.5328C33.5494 42.6428 32.858 46.9378 32.858 51.3214C32.858 57.7465 33.8393 64.3183 36.3867 70.4808C37.7727 74.4164 39.6401 78.3944 42.1274 82.1519L10.8786 113.401C9.19813 110.656 7.8153 107.841 6.82735 104.877L6.81229 104.832L6.79617 104.787C4.87361 99.4465 4.00367 93.8575 4.00001 88.2151C4.21919 76.4045 8.54284 64.6897 17.2843 55.788H17.2941L18.4672 54.6072Z" stroke="white" stroke-width="8"/>
  <path d="M26.9728 129.593L58.1003 98.2659C61.7071 100.625 65.5846 102.667 69.8386 104.09C76.1369 106.351 82.6506 107.343 89.1113 107.343C93.4212 107.343 97.7931 106.884 102.2 105.721L86.0496 121.976L86.0404 121.985L85.583 122.443C76.3521 131.674 64.3186 136.21 52.2175 136.434C46.5752 136.43 40.9862 135.56 35.6458 133.638L35.6291 133.632L35.6123 133.626C32.6572 132.592 29.7356 131.267 26.9728 129.593Z" stroke="white" stroke-width="8"/>
  <path d="M84.9806 44.1555L84.9517 44.1339L84.9225 44.1128C80.5289 40.9396 75.7466 38.1463 70.3607 36.3443C64.0624 34.0833 57.5487 33.0913 51.088 33.0913C48.8828 33.0913 46.6614 33.2115 44.4274 33.4846C46.6642 28.0962 50.0095 22.9946 54.4083 18.4328L54.8495 17.9915C64.1038 8.73728 76.3716 4 88.6458 4L110.107 4L136.434 4V30.3262V51.7878C136.434 64.0305 131.717 76.0876 122.42 85.6063C122.366 85.6611 122.315 85.7153 122.267 85.7685L122.026 86.0014C117.432 90.4366 112.29 93.8028 106.858 96.0437C107.158 93.8433 107.342 91.6063 107.342 89.3456C107.342 82.8754 106.347 76.3522 104.079 70.0453C102.335 65.0655 99.8209 60.0145 96.2571 55.4251C94.7351 53.3988 92.9816 51.3998 91.0077 49.4259C89.0247 47.4429 87.0164 45.6824 84.9806 44.1555Z" stroke="white" stroke-width="8"/>
</svg>
