<svg id="Layer_1" data-name="Layer 1" xmlns="http://www.w3.org/2000/svg" width="500" height="500" viewBox="0 0 500 500"><path d="M323.9,292.2a115.7,115.7,0,0,1-3.7,28,114.5,114.5,0,0,1-29.1,51.4h0l80.5-80.5.8-.8A115.3,115.3,0,0,0,383.2,140l-81.3,81.4-.9.8a113.4,113.4,0,0,1,22.9,70Z" style="fill:none;stroke:#fff;stroke-miterlimit:10;stroke-width:10px"/><path d="M128.4,208.9h0a114.7,114.7,0,0,1,79.3-32.8,113.7,113.7,0,0,1,39.9,6.6,116.2,116.2,0,0,1,30.2,16.2l.8-.8L360,116.8a115.1,115.1,0,0,0-150.3,10.8,6,6,0,0,1-.8.8h0Z" style="fill:none;stroke:#fff;stroke-miterlimit:10;stroke-width:10px"/><path d="M93.9,291.1v97.6l44.5-44.6a32.8,32.8,0,1,1,17.4,17.5l-44.5,44.5h97.6a114.6,114.6,0,0,0,81.4-33.7,3,3,0,0,1,.8-.8,114.5,114.5,0,0,0,29.1-51.4,116.4,116.4,0,0,1-67.8-2.9,114.7,114.7,0,0,1-76.3-109.6h0a114.3,114.3,0,0,1,3.7-27.9,115.1,115.1,0,0,0-51.4,29.1,3,3,0,0,1-.8.8A115,115,0,0,0,93.9,291.1Z" style="fill:none;stroke:#fff;stroke-miterlimit:10;stroke-width:10px"/></svg>